<?xml version="1.0" encoding="utf-8"?>
<!-- Generator: Adobe Illustrator 19.0.0, SVG Export Plug-In . SVG Version: 6.00 Build 0)  -->
<svg class="parseSVG-alcatel"  version="1.1" id="图层_1" xmlns="http://www.w3.org/2000/svg" xmlns:xlink="http://www.w3.org/1999/xlink" x="0px" y="0px"
	 viewBox="0 0 603.2 159.2" style="enable-background:new 0 0 603.2 159.2;" xml:space="preserve">
<style type="text/css">
	.parseSVG-alcatel .st0{fill:#00A0E3;}
</style>
<g id="XMLID_2_">
	<path id="XMLID_14_" class="st0" d="M330.2,16.5c-35.8,0-64.9,29-64.9,64.9s29,64.9,64.9,64.9c9.8,0,19.1-2.2,27.4-6.1l4.4,1.8
		l33.1,13.7V81.4C395.1,45.6,366,16.5,330.2,16.5 M379.1,131.4h-16.3v-12.5c-8.7,7.8-20.1,12.5-32.6,12.5c-27,0-48.9-21.9-48.9-48.9
		c0-27,21.9-48.9,48.9-48.9c27,0,48.9,21.9,48.9,48.9V131.4z"/>
	<path id="XMLID_11_" class="st0" d="M60.2,24.6C28.5,24.6,2.8,50.3,2.8,82c0,31.7,25.7,57.4,57.4,57.4c14.7,0,28.1-5.5,38.3-14.6
		v14.6h19.1V82C117.6,50.3,91.9,24.6,60.2,24.6 M60.2,120.3c-21.1,0-38.3-17.2-38.3-38.3s17.2-38.3,38.3-38.3
		c21.1,0,38.3,17.2,38.3,38.3S81.3,120.3,60.2,120.3"/>
	<rect id="XMLID_10_" x="132.9" y="5.4" class="st0" width="19.1" height="133.9"/>
	<rect id="XMLID_9_" x="578.7" y="5.4" class="st0" width="19.1" height="133.9"/>
	<path id="XMLID_8_" class="st0" d="M224.7,120.3c-21.1,0-38.3-17.2-38.3-38.3c0-21.1,17.2-38.3,38.3-38.3
		c10.6,0,20.1,4.3,27.1,11.2l13.5-13.5C255,31,240.6,24.6,224.7,24.6c-31.7,0-57.4,25.7-57.4,57.4c0,31.7,25.7,57.4,57.4,57.4
		c15.9,0,30.2-6.4,40.6-16.8L251.8,109C244.9,116,235.3,120.3,224.7,120.3"/>
	<polygon id="XMLID_7_" class="st0" points="429.5,24.6 429.5,5.4 410.4,5.4 410.4,139.4 429.5,139.4 429.5,43.7 448.6,43.7 
		448.6,24.6 	"/>
	<path id="XMLID_4_" class="st0" d="M535,106.9c-7,8.2-17.4,13.4-29,13.4c-17.8,0-32.7-12.2-37-28.7h93.6c0.5-3.1,0.8-6.3,0.8-9.6
		c0-31.7-25.7-57.4-57.4-57.4c-31.7,0-57.4,25.7-57.4,57.4c0,31.7,25.7,57.4,57.4,57.4c22.8,0,42.5-13.3,51.7-32.5H535z M506,43.7
		c17.8,0,32.7,12.2,37,28.7h-74C473.3,55.9,488.2,43.7,506,43.7"/>
	<path id="XMLID_3_" class="st0" d="M330.1,49.1c-18.3,0-33.3,14.9-33.3,33.3c0,18.3,14.9,33.3,33.3,33.3
		c18.3,0,33.3-14.9,33.3-33.3C363.4,64.1,348.5,49.1,330.1,49.1"/>
</g>
</svg>
