<?xml version="1.0" encoding="utf-8"?>
<!-- Generator: Adobe Illustrator 19.0.1, SVG Export Plug-In . SVG Version: 6.00 Build 0)  -->
<svg class="parseSVG-ic_message_full"  version="1.1" id="图层_1" xmlns="http://www.w3.org/2000/svg" xmlns:xlink="http://www.w3.org/1999/xlink" x="0px" y="0px"
	 viewBox="0 0 32 32" style="enable-background:new 0 0 32 32;" xml:space="preserve">
<style type="text/css">
	.parseSVG-ic_message_full .st0{fill:#01a9f0;}
	.parseSVG-ic_message_full .st1{fill:none;stroke:#01a9f0;stroke-width:2;stroke-miterlimit:10;}
	.parseSVG-ic_message_full .st2{fill:#B7B7B7;}
	.parseSVG-ic_message_full .st3{fill:none;stroke:#00A9F0;stroke-width:2;}
	.parseSVG-ic_message_full .st4{fill:none;stroke:#00A9F0;stroke-width:2;stroke-miterlimit:10;}
	.parseSVG-ic_message_full .st5{fill:#00A9F0;}
	.parseSVG-ic_message_full .st6{fill:#01A9F0;}
	.parseSVG-ic_message_full .st7{fill:none;stroke:#01A9F0;stroke-width:2;}
	.parseSVG-ic_message_full .st8{fill:none;stroke:#01A9F0;stroke-width:2;stroke-miterlimit:10;}
	.parseSVG-ic_message_full .st9{fill:#FF921E;}
	.parseSVG-ic_message_full .st10{fill:#FFFFFF;}
</style>
<rect x="19.9" y="4.2" class="st9" width="11.2" height="12.9"/>
<path class="st0" d="M29.1,17.9v5.6c0,0.3-0.2,0.5-0.5,0.5H3.4c-0.3,0-0.5-0.2-0.5-0.5v-15c0,0,0-0.1,0-0.1L16,19.6l3.2-2.8v-2.6
	L16,17L5.6,8h13.6V6H3.4C2,6,0.9,7.2,0.9,8.5v15C0.9,24.8,2,26,3.4,26h25.3c1.4,0,2.5-1.1,2.5-2.5v-5.6H29.1z"/>
<g>
	<rect x="24.7" y="6.6" class="st10" width="1.6" height="5.9"/>
	<rect x="24.7" y="13.2" class="st10" width="1.6" height="1.7"/>
</g>
</svg>
