<?xml version="1.0" encoding="utf-8"?>
<!-- Generator: Adobe Illustrator 19.0.0, SVG Export Plug-In . SVG Version: 6.00 Build 0)  -->
<svg class="parseSVG-logo"  version="1.1" id="图层_1" xmlns="http://www.w3.org/2000/svg" xmlns:xlink="http://www.w3.org/1999/xlink" x="0px" y="0px"
	 viewBox="0 0 347 74" style="enable-background:new 0 0 347 74;" xml:space="preserve">
<style type="text/css">
	.parseSVG-logo .st0{fill:#00A0E3;}
</style>
<g id="XMLID_1_">
	<polygon id="XMLID_12_" class="st0" points="6.3,6.3 14.7,6.3 14.7,59.5 41.8,59.5 41.8,66.9 6.3,66.9 	"/>
	<rect id="XMLID_11_" x="49" y="6.3" class="st0" width="8.5" height="60.5"/>
	<path id="XMLID_10_" class="st0" d="M71.4,6.3h8.4l26.9,39.4c2.2,3.3,5.1,8.7,5.1,8.7h0.2c0,0-0.6-5.4-0.6-8.7V6.3h8.5v60.5h-8.3
		l-27-39.3c-2.2-3.3-5.1-8.8-5.1-8.8h-0.2c0,0,0.6,5.4,0.6,8.8v39.3h-8.5V6.3z"/>
	<polygon id="XMLID_9_" class="st0" points="133.8,6.3 142.2,6.3 142.2,31.8 151.2,31.8 166.5,6.3 175.8,6.3 158.3,35.1 158.3,35.2 
		177,66.9 167.4,66.9 151.2,39.1 142.2,39.1 142.2,66.9 133.8,66.9 	"/>
	<polygon id="XMLID_8_" class="st0" points="183.4,6.6 187.1,6.6 187.1,34.8 225.2,34.8 225.2,6.6 228.9,6.6 228.9,66.6 225.2,66.6 
		225.2,38.2 187.1,38.2 187.1,66.6 183.4,66.6 	"/>
	<path id="XMLID_7_" class="st0" d="M243.5,6.6h3.7v39.3c0,11.3,7.4,18.3,18.7,18.3c11.3,0,18.8-6.9,18.8-18.4V6.6h3.7v39.4
		c0,13.2-9.2,21.6-22.4,21.6c-13.2,0-22.5-8.4-22.5-21.6V6.6z"/>
	<path id="XMLID_3_" class="st0" d="M323.7,63.2c8.1,0,13.2-5,13.2-13.1c0-8.1-5.6-13.3-13.3-13.3h-16.9v26.4H323.7z M323.1,33.4
		c6.7,0,11.4-4.6,11.4-11.7c0-7-4.5-11.6-11.5-11.6h-16.3v23.3H323.1z M303,6.6h20.1c8.7,0,15.2,5.8,15.2,15
		c0,6.5-3.2,10.9-7.8,13.1v0.2c5.9,1.6,10.2,7.5,10.2,15.2c0,10-7.1,16.5-16.7,16.5h-21V6.6z"/>
</g>
</svg>
